<svg width="26" height="32" viewBox="0 0 26 32" fill="none" xmlns="http://www.w3.org/2000/svg">
<g clip-path="url(#clip0_968_4741)">
<path d="M13.6153 8.91736H7.66108C7.58055 8.91736 7.50332 8.94935 7.44636 9.00632C7.38942 9.06326 7.35742 9.14051 7.35742 9.22104V10.4616C7.35742 10.5421 7.38942 10.6193 7.44636 10.6763C7.50332 10.7333 7.58055 10.7652 7.66108 10.7652H13.6153C13.6959 10.7652 13.7731 10.7333 13.8301 10.6763C13.887 10.6193 13.919 10.5421 13.919 10.4616V9.22104C13.919 9.14051 13.887 9.06326 13.8301 9.00632C13.7731 8.94935 13.6959 8.91736 13.6153 8.91736ZM13.3117 10.1579H7.96477V9.52473H13.3117V10.1579Z" fill="white"/>
<path d="M12.3567 13.785H4.05954C3.97901 13.785 3.90176 13.817 3.84482 13.874C3.78785 13.9309 3.75586 14.0082 3.75586 14.0887C3.75586 14.1693 3.78785 14.2465 3.84482 14.3034C3.90176 14.3604 3.97901 14.3924 4.05954 14.3924H12.3567C12.4372 14.3924 12.5145 14.3604 12.5714 14.3034C12.6284 14.2465 12.6604 14.1693 12.6604 14.0887C12.6604 14.0082 12.6284 13.9309 12.5714 13.874C12.5145 13.817 12.4372 13.785 12.3567 13.785Z" fill="white"/>
<path d="M12.3567 15.4121H4.05954C3.97901 15.4121 3.90176 15.4442 3.84482 15.5011C3.78785 15.558 3.75586 15.6353 3.75586 15.7158C3.75586 15.7964 3.78785 15.8736 3.84482 15.9306C3.90176 15.9875 3.97901 16.0195 4.05954 16.0195H12.3567C12.4372 16.0195 12.5145 15.9875 12.5714 15.9306C12.6284 15.8736 12.6604 15.7964 12.6604 15.7158C12.6604 15.6353 12.6284 15.558 12.5714 15.5011C12.5145 15.4442 12.4372 15.4121 12.3567 15.4121Z" fill="white"/>
<path d="M4.05954 17.6469H8.29982C8.38036 17.6469 8.45761 17.6149 8.51455 17.558C8.57151 17.501 8.60351 17.4238 8.60351 17.3432C8.60351 17.2627 8.57151 17.1855 8.51455 17.1285C8.45761 17.0715 8.38036 17.0396 8.29982 17.0396H4.05954C3.97901 17.0396 3.90176 17.0715 3.84482 17.1285C3.78785 17.1855 3.75586 17.2627 3.75586 17.3432C3.75586 17.4238 3.78785 17.501 3.84482 17.558C3.90176 17.6149 3.97901 17.6469 4.05954 17.6469Z" fill="white"/>
<path d="M17.2153 13.785H14.167C14.0864 13.785 14.0092 13.817 13.9522 13.874C13.8953 13.9309 13.8633 14.0082 13.8633 14.0887V17.3433C13.8633 17.4238 13.8953 17.501 13.9522 17.558C14.0092 17.6149 14.0864 17.6469 14.167 17.6469H17.2153C17.2958 17.6469 17.3731 17.6149 17.43 17.558C17.487 17.501 17.519 17.4238 17.519 17.3433V14.0887C17.519 14.0082 17.487 13.9309 17.43 13.874C17.3731 13.817 17.2958 13.785 17.2153 13.785ZM16.9116 17.0396H14.4706V14.3924H16.9116V17.0396Z" fill="white"/>
<path d="M12.3567 19.4742H4.05954C3.97901 19.4742 3.90176 19.5062 3.84482 19.5631C3.78785 19.6201 3.75586 19.6973 3.75586 19.7779C3.75586 19.8584 3.78785 19.9357 3.84482 19.9926C3.90176 20.0496 3.97901 20.0816 4.05954 20.0816H12.3567C12.4372 20.0816 12.5145 20.0496 12.5714 19.9926C12.6284 19.9357 12.6604 19.8584 12.6604 19.7779C12.6604 19.6973 12.6284 19.6201 12.5714 19.5631C12.5145 19.5062 12.4372 19.4742 12.3567 19.4742Z" fill="white"/>
<path d="M12.3567 21.1016H4.05954C3.97901 21.1016 3.90176 21.1336 3.84482 21.1905C3.78785 21.2475 3.75586 21.3247 3.75586 21.4053C3.75586 21.4858 3.78785 21.563 3.84482 21.62C3.90176 21.6769 3.97901 21.7089 4.05954 21.7089H12.3567C12.4372 21.7089 12.5145 21.6769 12.5714 21.62C12.6284 21.563 12.6604 21.4858 12.6604 21.4053C12.6604 21.3247 12.6284 21.2475 12.5714 21.1905C12.5145 21.1336 12.4372 21.1016 12.3567 21.1016Z" fill="white"/>
<path d="M4.05954 23.3364H8.29982C8.38036 23.3364 8.45761 23.3044 8.51455 23.2474C8.57151 23.1905 8.60351 23.1131 8.60351 23.0328C8.60351 22.9522 8.57151 22.8748 8.51455 22.8179C8.45761 22.761 8.38036 22.7289 8.29982 22.7289H4.05954C3.97901 22.7289 3.90176 22.761 3.84482 22.8179C3.78785 22.8748 3.75586 22.9522 3.75586 23.0328C3.75586 23.1131 3.78785 23.1905 3.84482 23.2474C3.90176 23.3044 3.97901 23.3364 4.05954 23.3364Z" fill="white"/>
<path d="M17.2153 19.4742H14.167C14.0864 19.4742 14.0092 19.5062 13.9522 19.5631C13.8953 19.6201 13.8633 19.6973 13.8633 19.7779V23.0328C13.8633 23.1132 13.8953 23.1905 13.9522 23.2474C14.0092 23.3044 14.0864 23.3364 14.167 23.3364H17.2153C17.2958 23.3364 17.3731 23.3044 17.43 23.2474C17.487 23.1905 17.519 23.1132 17.519 23.0328V19.7779C17.519 19.6973 17.487 19.6201 17.43 19.5631C17.3731 19.5062 17.2958 19.4742 17.2153 19.4742ZM16.9116 22.729H14.4706V20.0816H16.9116V22.729Z" fill="white"/>
<path d="M12.3567 25.1637H4.05954C3.97901 25.1637 3.90176 25.1955 3.84482 25.2527C3.78785 25.3096 3.75586 25.3867 3.75586 25.4673C3.75586 25.5479 3.78785 25.625 3.84482 25.682C3.90176 25.7389 3.97901 25.7709 4.05954 25.7709H12.3567C12.4372 25.7709 12.5145 25.7389 12.5714 25.682C12.6284 25.625 12.6604 25.5479 12.6604 25.4673C12.6604 25.3867 12.6284 25.3096 12.5714 25.2527C12.5145 25.1955 12.4372 25.1637 12.3567 25.1637Z" fill="white"/>
<path d="M12.3567 26.7907H4.05954C3.97901 26.7907 3.90176 26.8228 3.84482 26.8797C3.78785 26.9366 3.75586 27.0138 3.75586 27.0944C3.75586 27.1749 3.78785 27.2523 3.84482 27.3092C3.90176 27.3662 3.97901 27.398 4.05954 27.398H12.3567C12.4372 27.398 12.5145 27.3662 12.5714 27.3092C12.6284 27.2523 12.6604 27.1749 12.6604 27.0944C12.6604 27.0138 12.6284 26.9366 12.5714 26.8797C12.5145 26.8228 12.4372 26.7907 12.3567 26.7907Z" fill="white"/>
<path d="M8.29982 28.4182H4.05954C3.97901 28.4182 3.90176 28.4502 3.84482 28.5072C3.78785 28.5641 3.75586 28.6413 3.75586 28.7218C3.75586 28.8024 3.78785 28.8796 3.84482 28.9365C3.90176 28.9934 3.97901 29.0255 4.05954 29.0255H8.29982C8.38036 29.0255 8.45761 28.9934 8.51455 28.9365C8.57151 28.8796 8.60351 28.8024 8.60351 28.7218C8.60351 28.6413 8.57151 28.5641 8.51455 28.5072C8.45761 28.4502 8.38036 28.4182 8.29982 28.4182Z" fill="white"/>
<path d="M17.2153 25.1637H14.167C14.0864 25.1637 14.0092 25.1955 13.9522 25.2527C13.8953 25.3096 13.8633 25.3867 13.8633 25.4673V28.7218C13.8633 28.8024 13.8953 28.8795 13.9522 28.9365C14.0092 28.9934 14.0864 29.0255 14.167 29.0255H17.2153C17.2958 29.0255 17.3731 28.9934 17.43 28.9365C17.487 28.8795 17.519 28.8024 17.519 28.7218V25.4673C17.519 25.3867 17.487 25.3096 17.43 25.2527C17.3731 25.1955 17.2958 25.1637 17.2153 25.1637ZM16.9116 28.4182H14.4706V25.7709H16.9116V28.4182Z" fill="white"/>
<path d="M0.531601 13.0282C0.473881 13.0859 0.395582 13.1184 0.313955 13.1184C0.232326 13.1184 0.154046 13.0859 0.0963262 13.0282C0.0386064 12.9704 0.00617533 12.8921 0.00617533 12.8104L0.00195312 6.42313C0.00252336 5.97917 0.179067 5.55359 0.492833 5.2397C0.806597 4.92581 1.23198 4.74924 1.67567 4.74875H15.8145C15.8145 4.74875 16.3087 6.97272 17.7914 8.45536C19.274 9.938 21.2293 10.1851 21.2293 10.1851V27.1002C21.2293 27.1818 21.1969 27.2602 21.1392 27.3178C21.0815 27.3756 21.0032 27.4081 20.9215 27.4081C20.8399 27.4081 20.7616 27.3756 20.7039 27.3178C20.6462 27.2602 20.6138 27.1818 20.6138 27.1002V10.1851L17.512 8.76693L15.8145 5.36467H1.67567C1.39516 5.36491 1.1262 5.47651 0.927826 5.67495C0.729448 5.87339 0.617835 6.14246 0.61751 6.42313L0.621733 12.8104C0.621733 12.8921 0.589321 12.9704 0.531601 13.0282Z" fill="white"/>
<path d="M20.9212 22.8089C20.8396 22.8089 20.7613 22.8413 20.7036 22.8991C20.6458 22.9569 20.6134 23.0351 20.6134 23.1168V29.5042C20.6131 29.7848 20.5015 30.0538 20.3031 30.2524C20.1047 30.4507 19.8358 30.5622 19.5553 30.5627H1.6805C1.39971 30.5622 1.13052 30.4505 0.931977 30.2517C0.733434 30.0532 0.621743 29.7837 0.621417 29.5029L0.621419 12.495C0.621419 12.4134 0.589007 12.335 0.531289 12.2773C0.473569 12.2195 0.39527 12.1871 0.313643 12.1871C0.232014 12.1871 0.153732 12.2195 0.0960121 12.2773C0.0382923 12.335 0.00586217 12.4134 0.00586217 12.495L0.00585938 29.5029C0.00634813 29.947 0.182943 30.3731 0.49689 30.6871C0.810836 31.0012 1.23651 31.1781 1.6805 31.1785H19.5553C19.999 31.1781 20.4243 31.0014 20.7381 30.6875C21.0519 30.3736 21.2284 29.9481 21.229 29.5042V23.1168C21.229 23.0351 21.1966 22.9569 21.1388 22.8991C21.0811 22.8413 21.0028 22.8089 20.9212 22.8089Z" fill="white"/>
<path d="M20.907 9.88428C23.5534 9.88428 25.6987 7.73895 25.6987 5.09255C25.6987 2.44615 23.5534 0.300812 20.907 0.300812C18.2606 0.300812 16.1152 2.44615 16.1152 5.09255C16.1152 7.73895 18.2606 9.88428 20.907 9.88428Z" stroke="white" stroke-width="0.5"/>
<path d="M18.7032 3.13376C18.6696 3.13385 18.6363 3.12727 18.6053 3.11442C18.5743 3.10157 18.5462 3.08268 18.5225 3.05888L18.2104 2.74707C18.1639 2.69885 18.1381 2.6343 18.1387 2.5673C18.1393 2.50028 18.1661 2.43619 18.2135 2.38879C18.2609 2.3414 18.325 2.31452 18.392 2.31394C18.459 2.31336 18.5236 2.33913 18.5718 2.38567L18.8839 2.69748C18.9196 2.73323 18.9439 2.77876 18.9538 2.82834C18.9637 2.87791 18.9586 2.92928 18.9392 2.97598C18.9199 3.02267 18.8872 3.06257 18.8451 3.09066C18.8031 3.11874 18.7537 3.13374 18.7032 3.13376Z" fill="white"/>
<path d="M17.7866 5.34608H17.3454C17.2776 5.34608 17.2126 5.31915 17.1647 5.27121C17.1168 5.2233 17.0898 5.15828 17.0898 5.0905C17.0898 5.02271 17.1168 4.95771 17.1647 4.90979C17.2126 4.86185 17.2776 4.83493 17.3454 4.83493H17.7866C17.8544 4.83493 17.9194 4.86185 17.9673 4.90979C18.0152 4.95771 18.0421 5.02271 18.0421 5.0905C18.0421 5.15828 18.0152 5.2233 17.9673 5.27121C17.9194 5.31915 17.8544 5.34608 17.7866 5.34608Z" fill="white"/>
<path d="M18.3903 7.86809C18.3398 7.86809 18.2904 7.85309 18.2483 7.82501C18.2063 7.79692 18.1735 7.75702 18.1542 7.71033C18.1349 7.66363 18.1298 7.61224 18.1397 7.56268C18.1495 7.51311 18.1739 7.46758 18.2096 7.43183L18.5217 7.11976C18.5699 7.07322 18.6344 7.04743 18.7014 7.04801C18.7685 7.04862 18.8325 7.0755 18.8799 7.12288C18.9273 7.17028 18.9542 7.23435 18.9548 7.30137C18.9553 7.36837 18.9296 7.43294 18.883 7.48116L18.571 7.79323C18.5231 7.84114 18.4581 7.86809 18.3903 7.86809Z" fill="white"/>
<path d="M20.9138 2.21907C20.9816 2.21907 21.0466 2.19213 21.0945 2.14421C21.1424 2.09628 21.1694 2.03127 21.1694 1.96349V1.52132C21.1694 1.45354 21.1424 1.38854 21.0945 1.34061C21.0466 1.29268 20.9816 1.26575 20.9138 1.26575C20.846 1.26575 20.781 1.29268 20.7331 1.34061C20.6851 1.38854 20.6582 1.45354 20.6582 1.52132V1.96349C20.6582 2.03127 20.6851 2.09628 20.7331 2.14421C20.781 2.19213 20.846 2.21907 20.9138 2.21907Z" fill="white"/>
<path d="M20.9138 7.96191C20.846 7.96191 20.781 7.98886 20.7331 8.03678C20.6851 8.08472 20.6582 8.14972 20.6582 8.21751V8.6571C20.6582 8.7249 20.6851 8.7899 20.7331 8.83781C20.781 8.88575 20.846 8.91268 20.9138 8.91268C20.9816 8.91268 21.0466 8.88575 21.0945 8.83781C21.1424 8.7899 21.1694 8.7249 21.1694 8.6571V8.21751C21.1694 8.14972 21.1424 8.08472 21.0945 8.03678C21.0466 7.98886 20.9816 7.96191 20.9138 7.96191Z" fill="white"/>
<path d="M23.3064 7.12108C23.2585 7.07295 23.1936 7.04577 23.1257 7.04553C23.058 7.0453 22.9927 7.07201 22.9446 7.11979C22.8964 7.16758 22.8694 7.23254 22.8691 7.30036C22.8689 7.36819 22.8956 7.43332 22.9435 7.48143L23.2553 7.79326C23.3036 7.84077 23.3687 7.86737 23.4366 7.86737C23.5045 7.86737 23.5696 7.84077 23.6182 7.79326C23.6657 7.74536 23.6923 7.68058 23.6923 7.61306C23.6923 7.54555 23.6657 7.48077 23.6182 7.43287L23.3064 7.12108Z" fill="white"/>
<path d="M24.4809 4.83365H24.0389C23.971 4.83365 23.9061 4.86057 23.8582 4.90851C23.8101 4.95645 23.7832 5.02145 23.7832 5.08922C23.7832 5.15702 23.8101 5.22202 23.8582 5.26995C23.9061 5.31787 23.971 5.34482 24.0389 5.34482H24.4809C24.5488 5.34482 24.6137 5.31787 24.6616 5.26995C24.7095 5.22202 24.7366 5.15702 24.7366 5.08922C24.7366 5.02145 24.7095 4.95645 24.6616 4.90851C24.6137 4.86057 24.5488 4.83365 24.4809 4.83365Z" fill="white"/>
<path d="M23.2542 2.38517L22.9424 2.697C22.8943 2.74513 22.8672 2.81039 22.8672 2.87844C22.8672 2.94651 22.8943 3.01179 22.9424 3.0599C22.9905 3.10803 23.0558 3.13509 23.124 3.13509C23.1919 3.13509 23.2572 3.10803 23.3053 3.0599L23.6171 2.74812C23.6652 2.69999 23.6923 2.63471 23.6923 2.56665C23.6923 2.49858 23.6652 2.4333 23.6171 2.38517C23.569 2.33706 23.5036 2.31003 23.4357 2.31003C23.3676 2.31003 23.3023 2.33706 23.2542 2.38517Z" fill="white"/>
<path d="M21.589 5.49049C21.6375 5.39005 21.6644 5.28045 21.6678 5.16888C21.671 5.05732 21.6506 4.94631 21.6079 4.84319C21.5651 4.7401 21.5011 4.64721 21.4198 4.57067C21.3385 4.49413 21.242 4.43568 21.1365 4.39917V2.7098C21.1365 2.642 21.1096 2.577 21.0617 2.52909C21.0137 2.48115 20.9487 2.45422 20.8809 2.45422C20.8132 2.45422 20.7481 2.48115 20.7002 2.52909C20.6523 2.577 20.6254 2.642 20.6254 2.7098V4.39917C20.4491 4.45986 20.3001 4.58105 20.2047 4.74121C20.1094 4.90138 20.0738 5.09015 20.1045 5.27402C20.1351 5.45789 20.2299 5.62493 20.3721 5.74552C20.5142 5.86611 20.6945 5.9324 20.8809 5.93264C21.0008 5.93317 21.1191 5.90515 21.226 5.85086L21.939 6.56392C21.9628 6.58782 21.991 6.6067 22.0222 6.61942C22.0533 6.63217 22.0868 6.63848 22.1206 6.63803C22.1706 6.63784 22.2198 6.62282 22.2615 6.59488C22.3032 6.56695 22.3359 6.52731 22.3552 6.48096C22.3746 6.43459 22.3799 6.38355 22.3705 6.33422C22.361 6.28488 22.3372 6.23944 22.3019 6.20355L21.589 5.49049ZM20.6254 5.03811C20.6446 4.99189 20.6761 4.95175 20.7164 4.92201C20.7567 4.89225 20.8043 4.87401 20.8542 4.86919C20.904 4.86436 20.9543 4.87317 20.9995 4.89464C21.0447 4.91612 21.0833 4.94949 21.1111 4.99116C21.1389 5.03284 21.1549 5.08128 21.1573 5.1313C21.1597 5.18132 21.1485 5.23107 21.1249 5.27525C21.1013 5.3194 21.0661 5.35634 21.0231 5.38208C20.9802 5.40785 20.931 5.42145 20.8809 5.42149C20.8439 5.42177 20.8073 5.41393 20.7736 5.39848C20.7064 5.37011 20.6531 5.31627 20.6255 5.24873C20.5978 5.18119 20.5981 5.10547 20.6261 5.03811H20.6254Z" fill="white"/>
</g>
<defs>
<clipPath id="clip0_968_4741">
<rect width="26" height="31.1785" fill="white"/>
</clipPath>
</defs>
</svg>
