<svg width="26" height="32" viewBox="0 0 1170 1437" fill="none" xmlns="http://www.w3.org/2000/svg">
<path d="M529.048 1213.33H194.449C190.043 1213.33 186.471 1216.91 186.471 1221.31C186.471 1225.72 190.043 1229.29 194.449 1229.29H529.048C533.454 1229.29 537.026 1225.72 537.026 1221.31C537.026 1216.91 533.454 1213.33 529.048 1213.33Z" fill="white"/>
<path d="M194.449 745.276H527.5C531.906 745.276 535.478 741.703 535.478 737.296C535.478 732.89 531.906 729.317 527.5 729.317H194.449C190.043 729.317 186.471 732.89 186.471 737.296C186.471 741.703 190.043 745.276 194.449 745.276Z" fill="white"/>
<path d="M194.449 1108.29H527.5C531.906 1108.29 535.478 1104.72 535.478 1100.31C535.478 1095.9 531.906 1092.33 527.5 1092.33H194.449C190.043 1092.33 186.471 1095.9 186.471 1100.31C186.471 1104.72 190.043 1108.29 194.449 1108.29Z" fill="white"/>
<path fill-rule="evenodd" clip-rule="evenodd" d="M82.3996 211C19.5 211 0 242 0 293.416V1354.46C0 1415.5 27.2703 1436.88 82.3996 1436.88H719.805L725.164 1432.12L1054.88 1134.13L1054.97 501.5L1027.66 516.5L1027.49 1107.22H683.964V1107.57V1409.6H72.3996C59.8967 1409.6 48.7037 1404.6 40.4876 1396.38C32.2714 1388.17 27.2703 1376.97 27.2703 1364.58V283.416C27.2703 270.911 32.2714 259.716 40.4876 251.498C48.7037 243.28 59.8967 238.278 72.3996 238.278H617.5V211H82.3996ZM711.234 1397.21V1134.49H1006.65L711.234 1397.21Z" fill="white"/>
<path d="M864.124 850.202H194.449C190.043 850.202 186.471 853.775 186.471 858.181C186.471 862.588 190.043 866.161 194.449 866.161H864.124C868.529 866.161 872.102 862.588 872.102 858.181C872.102 853.775 868.529 850.202 864.124 850.202Z" fill="white"/>
<path d="M864.124 971.206H194.449C190.043 971.206 186.471 974.779 186.471 979.185C186.471 983.592 190.043 987.165 194.449 987.165H864.124C868.529 987.165 872.102 983.592 872.102 979.185C872.102 974.898 868.529 971.206 864.124 971.206Z" fill="white"/>
<path d="M644.056 383.092C631.412 351.921 625.004 318.977 625.004 285.181C625.004 251.385 631.412 218.442 644.056 187.271C657.142 155.006 676.372 126.047 701.209 101.209C726.047 76.3719 755.001 57.1422 787.271 44.0556C818.442 31.4124 851.38 25.0044 885.181 25.0044C918.977 25.0044 951.921 31.4124 983.092 44.0556C998.51 50.3082 1013.31 58.0461 1027.22 67.1255H1016.35C1009.56 67.1255 1004.05 72.6411 1004.05 79.4233C1004.05 86.2056 1009.56 91.7212 1016.35 91.7212H1060.29C1065.6 91.7212 1069.92 87.4031 1069.92 82.089V38.3443C1069.92 31.6945 1064.6 26.0925 1058.06 25.8622C1054.7 25.7529 1051.5 26.9677 1049.08 29.3052C1046.66 31.6427 1045.32 34.7862 1045.32 38.1543V49.1509C1028.79 37.9067 1011.04 28.4128 992.488 20.8879C958.318 7.02403 922.213 0 885.176 0C848.144 0 812.045 7.02403 777.875 20.8821C742.49 35.2295 710.749 56.3074 683.528 83.5284C656.307 110.749 635.23 142.49 620.882 177.875C607.024 212.045 600 248.15 600 285.181C600 322.213 607.024 358.318 620.882 392.488C629.869 414.654 641.626 435.599 655.818 454.737C657.983 457.65 661.299 459.475 664.915 459.74C665.226 459.763 665.536 459.775 665.842 459.775C669.181 459.775 672.324 458.473 674.691 456.107C679.038 451.76 679.562 444.765 675.911 439.842C662.969 422.392 652.254 403.294 644.056 383.092Z" fill="white"/>
<path d="M1149.12 177.512C1140.13 155.346 1128.37 134.401 1114.18 115.269C1112.02 112.356 1108.7 110.531 1105.07 110.26C1101.44 109.995 1097.88 111.319 1095.3 113.893C1090.96 118.24 1090.43 125.235 1094.08 130.158C1107.02 147.608 1117.74 166.706 1125.94 186.908C1138.58 218.079 1144.99 251.023 1144.99 284.819C1144.99 318.615 1138.58 351.558 1125.94 382.729C1112.85 414.993 1093.62 443.947 1068.78 468.791C1043.94 493.628 1014.99 512.858 982.722 525.944C951.552 538.588 918.608 544.996 884.812 544.996C851.016 544.996 818.072 538.588 786.902 525.944C771.489 519.692 756.681 511.954 742.777 502.874H753.647C760.429 502.874 765.945 497.359 765.945 490.577C765.945 483.794 760.429 478.279 753.647 478.279H709.706C704.398 478.279 700.074 482.597 700.074 487.911V531.661C700.074 538.311 705.394 543.913 711.923 544.143C715.291 544.27 718.486 543.044 720.91 540.706C723.334 538.369 724.67 535.225 724.67 531.857V520.861C741.199 532.105 758.949 541.599 777.505 549.124C811.676 562.982 847.78 570.006 884.812 570.006C921.844 570.006 957.948 562.982 992.118 549.124C1027.5 534.776 1059.24 513.698 1086.46 486.477C1113.69 459.256 1134.76 427.516 1149.11 392.131C1162.97 357.961 1169.99 321.856 1169.99 284.824C1170 247.787 1162.98 211.682 1149.12 177.512Z" fill="white"/>
<path d="M857.765 375.93C852.336 375.93 847.085 373.765 843.228 369.907L789.903 316.582C784.6 311.28 784.6 302.69 789.903 297.387C795.205 292.085 803.801 292.085 809.098 297.387L857.27 345.553L967.231 211.112C971.975 205.309 980.53 204.451 986.334 209.201C992.137 213.945 992.995 222.501 988.245 228.304L873.673 368.393C870 372.878 864.576 375.619 858.79 375.906C858.445 375.924 858.105 375.93 857.765 375.93Z" fill="white"/>
</svg>
